STARTFONT 2.1
COMMENT AUTOMATICALLY GENERATED FILE. DO NOT EDIT!
COMMENT Generated with 'ucs2any.pl 9x18.bdf KOI8-C KOI8-C'
COMMENT from an ISO10646-1 encoded source BDF font.
COMMENT ucs2any.pl by Markus Kuhn <mkuhn@acm.org>, 1999.
COMMENT "Send bug reports to Markus Kuhn <mkuhn@acm.org>"
COMMENT Changes 1999 by Serge Winitzki.
COMMENT $XFree86: xc/fonts/bdf/cyrillic/koi9x18.bdf,v 1.1 2002/12/15 01:49:07 dawes Exp $
FONT -Misc-Fixed-Medium-R-Normal--18-120-100-100-C-90-KOI8-R
SIZE 12 100 100
FONTBOUNDINGBOX 9 18 0 -4
STARTPROPERTIES 23
FONTNAME_REGISTRY ""
FOUNDRY "Misc"
FAMILY_NAME "Fixed"
WEIGHT_NAME "Medium"
SLANT "R"
SETWIDTH_NAME "Normal"
ADD_STYLE_NAME ""
PIXEL_SIZE 18
POINT_SIZE 120
RESOLUTION_X 100
RESOLUTION_Y 100
SPACING "C"
AVERAGE_WIDTH 90
CHARSET_REGISTRY "KOI8"
CHARSET_ENCODING "R"
DEFAULT_CHAR 0
FONT_DESCENT 4
FONT_ASCENT 14
COPYRIGHT "Public domain font.  Share and enjoy."
CAP_HEIGHT 10
X_HEIGHT 7
_XMBDFED_INFO "Edited with xmbdfed 4.3."
_XFREE86_GLYPH_RANGES "0_126 149 152_154 156_158 163 179 191_255"
ENDPROPERTIES
CHARS 201
STARTCHAR defaultchar
ENCODING 0
SWIDTH 540 0
DWIDTH 9 0
BBX 8 10 0 0
BITMAP
6D
01
40
41
01
40
41
01
40
5B
ENDCHAR
STARTCHAR uni25C6
ENCODING 1
SWIDTH 540 0
DWIDTH 9 0
BBX 9 9 0 0
BITMAP
0800
1C00
3E00
7F00
FF80
7F00
3E00
1C00
0800
ENDCHAR
STARTCHAR shade
ENCODING 2
SWIDTH 540 0
DWIDTH 9 0
BBX 9 18 0 -4
BITMAP
AA80
5500
AA80
5500
AA80
5500
AA80
5500
AA80
5500
AA80
5500
AA80
5500
AA80
5500
AA80
5500
ENDCHAR
STARTCHAR uni2409
ENCODING 3
SWIDTH 540 0
DWIDTH 9 0
BBX 8 11 0 0
BITMAP
48
48
78
48
48
00
1F
04
04
04
04
ENDCHAR
STARTCHAR uni240C
ENCODING 4
SWIDTH 540 0
DWIDTH 9 0
BBX 8 10 0 0
BITMAP
78
40
70
40
4F
48
0E
08
08
08
ENDCHAR
STARTCHAR uni240D
ENCODING 5
SWIDTH 540 0
DWIDTH 9 0
BBX 8 11 0 0
BITMAP
38
40
40
40
38
00
0E
09
0E
09
09
ENDCHAR
STARTCHAR uni240A
ENCODING 6
SWIDTH 540 0
DWIDTH 9 0
BBX 8 11 0 0
BITMAP
40
40
40
40
78
00
0F
08
0E
08
08
ENDCHAR
STARTCHAR degree
ENCODING 7
SWIDTH 540 0
DWIDTH 9 0
BBX 8 4 0 6
BITMAP
0C
12
12
0C
ENDCHAR
STARTCHAR plusminus
ENCODING 8
SWIDTH 540 0
DWIDTH 9 0
BBX 8 9 0 1
BITMAP
08
08
08
7F
08
08
08
00
7F
ENDCHAR
STARTCHAR uni2424
ENCODING 9
SWIDTH 540 0
DWIDTH 9 0
BBX 8 11 0 0
BITMAP
44
64
54
4C
44
00
08
08
08
08
0F
ENDCHAR
STARTCHAR uni240B
ENCODING 10
SWIDTH 540 0
DWIDTH 9 0
BBX 8 11 0 0
BITMAP
44
44
28
28
10
00
1F
04
04
04
04
ENDCHAR
STARTCHAR SF040000
ENCODING 11
SWIDTH 540 0
DWIDTH 9 0
BBX 8 10 0 4
BITMAP
08
08
08
08
08
08
08
08
08
F8
ENDCHAR
STARTCHAR SF030000
ENCODING 12
SWIDTH 540 0
DWIDTH 9 0
BBX 8 9 0 -4
BITMAP
F8
08
08
08
08
08
08
08
08
ENDCHAR
STARTCHAR SF010000
ENCODING 13
SWIDTH 540 0
DWIDTH 9 0
BBX 9 9 0 -4
BITMAP
0F80
0800
0800
0800
0800
0800
0800
0800
0800
ENDCHAR
STARTCHAR SF020000
ENCODING 14
SWIDTH 540 0
DWIDTH 9 0
BBX 9 10 0 4
BITMAP
0800
0800
0800
0800
0800
0800
0800
0800
0800
0F80
ENDCHAR
STARTCHAR SF050000
ENCODING 15
SWIDTH 540 0
DWIDTH 9 0
BBX 9 18 0 -4
BITMAP
0800
0800
0800
0800
0800
0800
0800
0800
0800
FF80
0800
0800
0800
0800
0800
0800
0800
0800
ENDCHAR
STARTCHAR char16
ENCODING 16
SWIDTH 540 0
DWIDTH 9 0
BBX 9 1 0 11
BITMAP
FF80
ENDCHAR
STARTCHAR char17
ENCODING 17
SWIDTH 540 0
DWIDTH 9 0
BBX 9 1 0 7
BITMAP
FF80
ENDCHAR
STARTCHAR char18
ENCODING 18
SWIDTH 540 0
DWIDTH 9 0
BBX 9 1 0 4
BITMAP
FF80
ENDCHAR
STARTCHAR char19
ENCODING 19
SWIDTH 540 0
DWIDTH 9 0
BBX 9 1 0 1
BITMAP
FF80
ENDCHAR
STARTCHAR char20
ENCODING 20
SWIDTH 540 0
DWIDTH 9 0
BBX 9 1 0 -2
BITMAP
FF80
ENDCHAR
STARTCHAR SF080000
ENCODING 21
SWIDTH 540 0
DWIDTH 9 0
BBX 9 18 0 -4
BITMAP
0800
0800
0800
0800
0800
0800
0800
0800
0800
0F80
0800
0800
0800
0800
0800
0800
0800
0800
ENDCHAR
STARTCHAR SF090000
ENCODING 22
SWIDTH 540 0
DWIDTH 9 0
BBX 8 18 0 -4
BITMAP
08
08
08
08
08
08
08
08
08
F8
08
08
08
08
08
08
08
08
ENDCHAR
STARTCHAR SF070000
ENCODING 23
SWIDTH 540 0
DWIDTH 9 0
BBX 9 10 0 4
BITMAP
0800
0800
0800
0800
0800
0800
0800
0800
0800
FF80
ENDCHAR
STARTCHAR SF060000
ENCODING 24
SWIDTH 540 0
DWIDTH 9 0
BBX 9 9 0 -4
BITMAP
FF80
0800
0800
0800
0800
0800
0800
0800
0800
ENDCHAR
STARTCHAR SF110000
ENCODING 25
SWIDTH 540 0
DWIDTH 9 0
BBX 9 18 0 -4
BITMAP
0800
0800
0800
0800
0800
0800
0800
0800
0800
0800
0800
0800
0800
0800
0800
0800
0800
0800
ENDCHAR
STARTCHAR lessequal
ENCODING 26
SWIDTH 540 0
DWIDTH 9 0
BBX 8 7 0 1
BITMAP
03
1C
60
1C
03
00
7F
ENDCHAR
STARTCHAR greaterequal
ENCODING 27
SWIDTH 540 0
DWIDTH 9 0
BBX 8 7 0 1
BITMAP
60
1C
03
1C
60
00
7F
ENDCHAR
STARTCHAR pi
ENCODING 28
SWIDTH 540 0
DWIDTH 9 0
BBX 8 7 0 0
BITMAP
7F
22
22
22
22
22
22
ENDCHAR
STARTCHAR notequal
ENCODING 29
SWIDTH 540 0
DWIDTH 9 0
BBX 8 7 0 1
BITMAP
04
04
7F
08
7F
10
10
ENDCHAR
STARTCHAR sterling
ENCODING 30
SWIDTH 540 0
DWIDTH 9 0
BBX 8 10 0 0
BITMAP
0E
11
10
10
7C
10
10
30
51
2E
ENDCHAR
STARTCHAR periodcentered
ENCODING 31
SWIDTH 540 0
DWIDTH 9 0
BBX 9 2 0 4
BITMAP
0C00
0C00
ENDCHAR
STARTCHAR space
ENCODING 32
SWIDTH 540 0
DWIDTH 9 0
BBX 0 0 0 0
BITMAP
ENDCHAR
STARTCHAR exclam
ENCODING 33
SWIDTH 540 0
DWIDTH 9 0
BBX 9 11 0 0
BITMAP
0800
0800
0800
0800
0800
0800
0800
0000
0000
0800
0800
ENDCHAR
STARTCHAR quotedbl
ENCODING 34
SWIDTH 540 0
DWIDTH 9 0
BBX 8 4 0 7
BITMAP
12
12
12
12
ENDCHAR
STARTCHAR numbersign
ENCODING 35
SWIDTH 540 0
DWIDTH 9 0
BBX 8 10 0 0
BITMAP
24
24
24
FF
24
24
FF
24
24
24
ENDCHAR
STARTCHAR dollar
ENCODING 36
SWIDTH 540 0
DWIDTH 9 0
BBX 8 11 0 -1
BITMAP
08
3E
49
48
28
1C
0A
09
49
3E
08
ENDCHAR
STARTCHAR percent
ENCODING 37
SWIDTH 540 0
DWIDTH 9 0
BBX 8 10 0 0
BITMAP
21
52
52
24
08
08
12
25
25
42
ENDCHAR
STARTCHAR ampersand
ENCODING 38
SWIDTH 540 0
DWIDTH 9 0
BBX 8 10 0 0
BITMAP
30
48
48
48
30
31
4A
44
4A
31
ENDCHAR
STARTCHAR quotesingle
ENCODING 39
SWIDTH 540 0
DWIDTH 9 0
BBX 9 4 0 7
BITMAP
0800
0800
0800
0800
ENDCHAR
STARTCHAR parenleft
ENCODING 40
SWIDTH 540 0
DWIDTH 9 0
BBX 9 12 0 -1
BITMAP
0400
0800
0800
1000
1000
1000
1000
1000
1000
0800
0800
0400
ENDCHAR
STARTCHAR parenright
ENCODING 41
SWIDTH 540 0
DWIDTH 9 0
BBX 9 12 0 -1
BITMAP
1000
0800
0800
0400
0400
0400
0400
0400
0400
0800
0800
1000
ENDCHAR
STARTCHAR asterisk
ENCODING 42
SWIDTH 540 0
DWIDTH 9 0
BBX 8 7 0 1
BITMAP
08
49
2A
1C
2A
49
08
ENDCHAR
STARTCHAR plus
ENCODING 43
SWIDTH 540 0
DWIDTH 9 0
BBX 8 7 0 1
BITMAP
08
08
08
7F
08
08
08
ENDCHAR
STARTCHAR comma
ENCODING 44
SWIDTH 540 0
DWIDTH 9 0
BBX 9 4 0 -2
BITMAP
0C00
0C00
0400
0800
ENDCHAR
STARTCHAR hyphen
ENCODING 45
SWIDTH 540 0
DWIDTH 9 0
BBX 8 1 0 4
BITMAP
7F
ENDCHAR
STARTCHAR period
ENCODING 46
SWIDTH 540 0
DWIDTH 9 0
BBX 9 2 0 0
BITMAP
0C00
0C00
ENDCHAR
STARTCHAR slash
ENCODING 47
SWIDTH 540 0
DWIDTH 9 0
BBX 9 10 0 0
BITMAP
0100
0200
0200
0400
0800
0800
1000
2000
2000
4000
ENDCHAR
STARTCHAR zero
ENCODING 48
SWIDTH 540 0
DWIDTH 9 0
BBX 8 10 0 0
BITMAP
1C
22
41
41
41
41
41
41
22
1C
ENDCHAR
STARTCHAR one
ENCODING 49
SWIDTH 540 0
DWIDTH 9 0
BBX 8 10 0 0
BITMAP
08
18
28
48
08
08
08
08
08
7F
ENDCHAR
STARTCHAR two
ENCODING 50
SWIDTH 540 0
DWIDTH 9 0
BBX 8 10 0 0
BITMAP
1C
22
41
01
02
04
08
10
20
7F
ENDCHAR
STARTCHAR three
ENCODING 51
SWIDTH 540 0
DWIDTH 9 0
BBX 8 10 0 0
BITMAP
7F
01
02
04
0C
02
01
01
42
3C
ENDCHAR
STARTCHAR four
ENCODING 52
SWIDTH 540 0
DWIDTH 9 0
BBX 8 10 0 0
BITMAP
02
06
0A
12
22
42
7F
02
02
02
ENDCHAR
STARTCHAR five
ENCODING 53
SWIDTH 540 0
DWIDTH 9 0
BBX 8 10 0 0
BITMAP
7F
40
40
40
7C
02
01
01
42
3C
ENDCHAR
STARTCHAR six
ENCODING 54
SWIDTH 540 0
DWIDTH 9 0
BBX 8 10 0 0
BITMAP
1E
20
40
40
5C
62
41
41
22
1C
ENDCHAR
STARTCHAR seven
ENCODING 55
SWIDTH 540 0
DWIDTH 9 0
BBX 8 10 0 0
BITMAP
7F
01
02
02
04
04
08
08
08
08
ENDCHAR
STARTCHAR eight
ENCODING 56
SWIDTH 540 0
DWIDTH 9 0
BBX 8 10 0 0
BITMAP
1C
22
41
22
1C
22
41
41
22
1C
ENDCHAR
STARTCHAR nine
ENCODING 57
SWIDTH 540 0
DWIDTH 9 0
BBX 8 10 0 0
BITMAP
1C
22
41
41
23
1D
01
01
02
3C
ENDCHAR
STARTCHAR colon
ENCODING 58
SWIDTH 540 0
DWIDTH 9 0
BBX 9 7 0 0
BITMAP
0C00
0C00
0000
0000
0000
0C00
0C00
ENDCHAR
STARTCHAR semicolon
ENCODING 59
SWIDTH 540 0
DWIDTH 9 0
BBX 9 9 0 -2
BITMAP
0C00
0C00
0000
0000
0000
0C00
0C00
0400
0800
ENDCHAR
STARTCHAR less
ENCODING 60
SWIDTH 540 0
DWIDTH 9 0
BBX 9 9 0 0
BITMAP
0200
0400
0800
1000
2000
1000
0800
0400
0200
ENDCHAR
STARTCHAR equal
ENCODING 61
SWIDTH 540 0
DWIDTH 9 0
BBX 8 4 0 2
BITMAP
7F
00
00
7F
ENDCHAR
STARTCHAR greater
ENCODING 62
SWIDTH 540 0
DWIDTH 9 0
BBX 9 9 0 0
BITMAP
2000
1000
0800
0400
0200
0400
0800
1000
2000
ENDCHAR
STARTCHAR question
ENCODING 63
SWIDTH 540 0
DWIDTH 9 0
BBX 8 10 0 0
BITMAP
1C
22
41
01
02
04
08
08
00
08
ENDCHAR
STARTCHAR at
ENCODING 64
SWIDTH 540 0
DWIDTH 9 0
BBX 8 10 0 0
BITMAP
1C
22
4D
55
55
55
55
4E
20
1E
ENDCHAR
STARTCHAR A
ENCODING 65
SWIDTH 540 0
DWIDTH 9 0
BBX 8 10 0 0
BITMAP
08
14
14
14
22
3E
22
41
41
41
ENDCHAR
STARTCHAR B
ENCODING 66
SWIDTH 540 0
DWIDTH 9 0
BBX 8 10 0 0
BITMAP
7C
42
41
42
7C
42
41
41
42
7C
ENDCHAR
STARTCHAR C
ENCODING 67
SWIDTH 540 0
DWIDTH 9 0
BBX 8 10 0 0
BITMAP
1E
21
40
40
40
40
40
40
21
1E
ENDCHAR
STARTCHAR D
ENCODING 68
SWIDTH 540 0
DWIDTH 9 0
BBX 8 10 0 0
BITMAP
7C
42
41
41
41
41
41
41
42
7C
ENDCHAR
STARTCHAR E
ENCODING 69
SWIDTH 540 0
DWIDTH 9 0
BBX 8 10 0 0
BITMAP
7F
40
40
40
7C
40
40
40
40
7F
ENDCHAR
STARTCHAR F
ENCODING 70
SWIDTH 540 0
DWIDTH 9 0
BBX 8 10 0 0
BITMAP
7F
40
40
40
7C
40
40
40
40
40
ENDCHAR
STARTCHAR G
ENCODING 71
SWIDTH 540 0
DWIDTH 9 0
BBX 8 10 0 0
BITMAP
1C
22
41
40
40
47
41
41
22
1C
ENDCHAR
STARTCHAR H
ENCODING 72
SWIDTH 540 0
DWIDTH 9 0
BBX 8 10 0 0
BITMAP
41
41
41
41
7F
41
41
41
41
41
ENDCHAR
STARTCHAR I
ENCODING 73
SWIDTH 540 0
DWIDTH 9 0
BBX 8 10 0 0
BITMAP
3E
08
08
08
08
08
08
08
08
3E
ENDCHAR
STARTCHAR J
ENCODING 74
SWIDTH 540 0
DWIDTH 9 0
BBX 8 10 0 0
BITMAP
1F
04
04
04
04
04
04
44
44
38
ENDCHAR
STARTCHAR K
ENCODING 75
SWIDTH 540 0
DWIDTH 9 0
BBX 8 10 0 0
BITMAP
41
42
44
48
50
68
44
42
41
41
ENDCHAR
STARTCHAR L
ENCODING 76
SWIDTH 540 0
DWIDTH 9 0
BBX 8 10 0 0
BITMAP
40
40
40
40
40
40
40
40
40
7F
ENDCHAR
STARTCHAR M
ENCODING 77
SWIDTH 540 0
DWIDTH 9 0
BBX 8 10 0 0
BITMAP
41
41
63
55
49
41
41
41
41
41
ENDCHAR
STARTCHAR N
ENCODING 78
SWIDTH 540 0
DWIDTH 9 0
BBX 8 10 0 0
BITMAP
41
41
61
51
49
45
43
41
41
41
ENDCHAR
STARTCHAR O
ENCODING 79
SWIDTH 540 0
DWIDTH 9 0
BBX 8 10 0 0
BITMAP
3E
41
41
41
41
41
41
41
41
3E
ENDCHAR
STARTCHAR P
ENCODING 80
SWIDTH 540 0
DWIDTH 9 0
BBX 8 10 0 0
BITMAP
7C
42
41
41
42
7C
40
40
40
40
ENDCHAR
STARTCHAR Q
ENCODING 81
SWIDTH 540 0
DWIDTH 9 0
BBX 8 10 0 0
BITMAP
1C
22
41
41
41
41
41
45
22
1D
ENDCHAR
STARTCHAR R
ENCODING 82
SWIDTH 540 0
DWIDTH 9 0
BBX 8 10 0 0
BITMAP
7C
42
41
41
42
7C
48
44
42
41
ENDCHAR
STARTCHAR S
ENCODING 83
SWIDTH 540 0
DWIDTH 9 0
BBX 8 10 0 0
BITMAP
3E
41
40
40
3E
01
01
01
41
3E
ENDCHAR
STARTCHAR T
ENCODING 84
SWIDTH 540 0
DWIDTH 9 0
BBX 8 10 0 0
BITMAP
7F
08
08
08
08
08
08
08
08
08
ENDCHAR
STARTCHAR U
ENCODING 85
SWIDTH 540 0
DWIDTH 9 0
BBX 8 10 0 0
BITMAP
41
41
41
41
41
41
41
41
22
1C
ENDCHAR
STARTCHAR V
ENCODING 86
SWIDTH 540 0
DWIDTH 9 0
BBX 8 10 0 0
BITMAP
41
41
41
22
22
22
14
14
14
08
ENDCHAR
STARTCHAR W
ENCODING 87
SWIDTH 540 0
DWIDTH 9 0
BBX 8 10 0 0
BITMAP
41
41
41
41
49
49
49
49
55
22
ENDCHAR
STARTCHAR X
ENCODING 88
SWIDTH 540 0
DWIDTH 9 0
BBX 8 10 0 0
BITMAP
41
41
22
14
08
08
14
22
41
41
ENDCHAR
STARTCHAR Y
ENCODING 89
SWIDTH 540 0
DWIDTH 9 0
BBX 8 10 0 0
BITMAP
41
41
22
14
08
08
08
08
08
08
ENDCHAR
STARTCHAR Z
ENCODING 90
SWIDTH 540 0
DWIDTH 9 0
BBX 8 10 0 0
BITMAP
7F
01
02
04
08
10
20
40
40
7F
ENDCHAR
STARTCHAR bracketleft
ENCODING 91
SWIDTH 540 0
DWIDTH 9 0
BBX 8 12 0 -1
BITMAP
1E
10
10
10
10
10
10
10
10
10
10
1E
ENDCHAR
STARTCHAR backslash
ENCODING 92
SWIDTH 540 0
DWIDTH 9 0
BBX 9 10 0 0
BITMAP
4000
2000
2000
1000
0800
0800
0400
0200
0200
0100
ENDCHAR
STARTCHAR bracketright
ENCODING 93
SWIDTH 540 0
DWIDTH 9 0
BBX 8 12 0 -1
BITMAP
3C
04
04
04
04
04
04
04
04
04
04
3C
ENDCHAR
STARTCHAR asciicircum
ENCODING 94
SWIDTH 540 0
DWIDTH 9 0
BBX 8 4 0 6
BITMAP
08
14
22
41
ENDCHAR
STARTCHAR underscore
ENCODING 95
SWIDTH 540 0
DWIDTH 9 0
BBX 8 1 0 -1
BITMAP
FF
ENDCHAR
STARTCHAR grave
ENCODING 96
SWIDTH 540 0
DWIDTH 9 0
BBX 9 3 0 10
BITMAP
1000
0800
0400
ENDCHAR
STARTCHAR a
ENCODING 97
SWIDTH 540 0
DWIDTH 9 0
BBX 8 7 0 0
BITMAP
3E
01
01
3F
41
43
3D
ENDCHAR
STARTCHAR b
ENCODING 98
SWIDTH 540 0
DWIDTH 9 0
BBX 8 10 0 0
BITMAP
40
40
40
5E
61
41
41
41
61
5E
ENDCHAR
STARTCHAR c
ENCODING 99
SWIDTH 540 0
DWIDTH 9 0
BBX 8 7 0 0
BITMAP
3E
41
40
40
40
41
3E
ENDCHAR
STARTCHAR d
ENCODING 100
SWIDTH 540 0
DWIDTH 9 0
BBX 8 10 0 0
BITMAP
01
01
01
3D
43
41
41
41
43
3D
ENDCHAR
STARTCHAR e
ENCODING 101
SWIDTH 540 0
DWIDTH 9 0
BBX 8 7 0 0
BITMAP
3E
41
41
7F
40
41
3E
ENDCHAR
STARTCHAR f
ENCODING 102
SWIDTH 540 0
DWIDTH 9 0
BBX 8 10 0 0
BITMAP
0E
11
11
10
10
7C
10
10
10
10
ENDCHAR
STARTCHAR g
ENCODING 103
SWIDTH 540 0
DWIDTH 9 0
BBX 8 10 0 -3
BITMAP
3D
42
42
42
3C
40
3E
41
41
3E
ENDCHAR
STARTCHAR h
ENCODING 104
SWIDTH 540 0
DWIDTH 9 0
BBX 8 10 0 0
BITMAP
40
40
40
5E
61
41
41
41
41
41
ENDCHAR
STARTCHAR i
ENCODING 105
SWIDTH 540 0
DWIDTH 9 0
BBX 8 10 0 0
BITMAP
18
00
00
38
08
08
08
08
08
3E
ENDCHAR
STARTCHAR j
ENCODING 106
SWIDTH 540 0
DWIDTH 9 0
BBX 8 13 0 -3
BITMAP
06
00
00
0E
02
02
02
02
02
02
22
22
1C
ENDCHAR
STARTCHAR k
ENCODING 107
SWIDTH 540 0
DWIDTH 9 0
BBX 8 10 0 0
BITMAP
40
40
40
42
44
48
58
64
42
41
ENDCHAR
STARTCHAR l
ENCODING 108
SWIDTH 540 0
DWIDTH 9 0
BBX 8 10 0 0
BITMAP
38
08
08
08
08
08
08
08
08
3E
ENDCHAR
STARTCHAR m
ENCODING 109
SWIDTH 540 0
DWIDTH 9 0
BBX 8 7 0 0
BITMAP
76
49
49
49
49
49
41
ENDCHAR
STARTCHAR n
ENCODING 110
SWIDTH 540 0
DWIDTH 9 0
BBX 8 7 0 0
BITMAP
5E
61
41
41
41
41
41
ENDCHAR
STARTCHAR o
ENCODING 111
SWIDTH 540 0
DWIDTH 9 0
BBX 8 7 0 0
BITMAP
3E
41
41
41
41
41
3E
ENDCHAR
STARTCHAR p
ENCODING 112
SWIDTH 540 0
DWIDTH 9 0
BBX 8 10 0 -3
BITMAP
5C
62
41
41
41
62
5C
40
40
40
ENDCHAR
STARTCHAR q
ENCODING 113
SWIDTH 540 0
DWIDTH 9 0
BBX 8 10 0 -3
BITMAP
1D
23
41
41
41
23
1D
01
01
01
ENDCHAR
STARTCHAR r
ENCODING 114
SWIDTH 540 0
DWIDTH 9 0
BBX 8 7 0 0
BITMAP
4E
31
21
20
20
20
20
ENDCHAR
STARTCHAR s
ENCODING 115
SWIDTH 540 0
DWIDTH 9 0
BBX 8 7 0 0
BITMAP
3E
41
40
3E
01
41
3E
ENDCHAR
STARTCHAR t
ENCODING 116
SWIDTH 540 0
DWIDTH 9 0
BBX 8 9 0 0
BITMAP
10
10
7E
10
10
10
10
11
0E
ENDCHAR
STARTCHAR u
ENCODING 117
SWIDTH 540 0
DWIDTH 9 0
BBX 8 7 0 0
BITMAP
41
41
41
41
41
43
3D
ENDCHAR
STARTCHAR v
ENCODING 118
SWIDTH 540 0
DWIDTH 9 0
BBX 8 7 0 0
BITMAP
41
41
22
22
14
14
08
ENDCHAR
STARTCHAR w
ENCODING 119
SWIDTH 540 0
DWIDTH 9 0
BBX 8 7 0 0
BITMAP
41
41
49
49
49
55
22
ENDCHAR
STARTCHAR x
ENCODING 120
SWIDTH 540 0
DWIDTH 9 0
BBX 8 7 0 0
BITMAP
41
22
14
08
14
22
41
ENDCHAR
STARTCHAR y
ENCODING 121
SWIDTH 540 0
DWIDTH 9 0
BBX 8 10 0 -3
BITMAP
21
21
12
12
12
0C
0C
08
48
30
ENDCHAR
STARTCHAR z
ENCODING 122
SWIDTH 540 0
DWIDTH 9 0
BBX 8 7 0 0
BITMAP
7F
02
04
08
10
20
7F
ENDCHAR
STARTCHAR braceleft
ENCODING 123
SWIDTH 540 0
DWIDTH 9 0
BBX 9 11 0 0
BITMAP
0700
0800
0800
0800
0800
3000
0800
0800
0800
0800
0700
ENDCHAR
STARTCHAR bar
ENCODING 124
SWIDTH 540 0
DWIDTH 9 0
BBX 9 12 0 -1
BITMAP
0800
0800
0800
0800
0800
0800
0800
0800
0800
0800
0800
0800
ENDCHAR
STARTCHAR braceright
ENCODING 125
SWIDTH 540 0
DWIDTH 9 0
BBX 9 11 0 0
BITMAP
7000
0800
0800
0800
0800
0600
0800
0800
0800
0800
7000
ENDCHAR
STARTCHAR asciitilde
ENCODING 126
SWIDTH 540 0
DWIDTH 9 0
BBX 8 3 0 7
BITMAP
31
49
46
ENDCHAR
STARTCHAR bullet
ENCODING 149
SWIDTH 540 0
DWIDTH 9 0
BBX 8 5 0 2
BITMAP
1C
3E
3E
3E
1C
ENDCHAR
STARTCHAR lessequal
ENCODING 152
SWIDTH 540 0
DWIDTH 9 0
BBX 8 7 0 1
BITMAP
03
1C
60
1C
03
00
7F
ENDCHAR
STARTCHAR greaterequal
ENCODING 153
SWIDTH 540 0
DWIDTH 9 0
BBX 8 7 0 1
BITMAP
60
1C
03
1C
60
00
7F
ENDCHAR
STARTCHAR space
ENCODING 154
SWIDTH 540 0
DWIDTH 9 0
BBX 0 0 0 0
BITMAP
ENDCHAR
STARTCHAR degree
ENCODING 156
SWIDTH 540 0
DWIDTH 9 0
BBX 8 4 0 6
BITMAP
0C
12
12
0C
ENDCHAR
STARTCHAR twosuperior
ENCODING 157
SWIDTH 540 0
DWIDTH 9 0
BBX 8 6 0 4
BITMAP
30
48
08
30
40
78
ENDCHAR
STARTCHAR periodcentered
ENCODING 158
SWIDTH 540 0
DWIDTH 9 0
BBX 9 2 0 4
BITMAP
0C00
0C00
ENDCHAR
STARTCHAR afii10071
ENCODING 163
SWIDTH 540 0
DWIDTH 9 0
BBX 8 10 0 0
BITMAP
14
14
00
3E
41
41
7F
40
41
3E
ENDCHAR
STARTCHAR afii10023
ENCODING 179
SWIDTH 540 0
DWIDTH 9 0
BBX 8 13 0 0
BITMAP
14
14
00
7F
40
40
40
7C
40
40
40
40
7F
ENDCHAR
STARTCHAR copyright
ENCODING 191
SWIDTH 540 0
DWIDTH 9 0
BBX 8 9 0 1
BITMAP
3C
42
99
A5
A1
A5
99
42
3C
ENDCHAR
STARTCHAR afii10096
ENCODING 192
SWIDTH 540 0
DWIDTH 9 0
BBX 8 7 0 0
BITMAP
4E
51
51
71
51
51
4E
ENDCHAR
STARTCHAR afii10065
ENCODING 193
SWIDTH 540 0
DWIDTH 9 0
BBX 8 7 0 0
BITMAP
3E
01
01
3F
41
43
3D
ENDCHAR
STARTCHAR afii10066
ENCODING 194
SWIDTH 540 0
DWIDTH 9 0
BBX 8 10 0 0
BITMAP
01
3E
40
5E
61
41
41
41
41
3E
ENDCHAR
STARTCHAR afii10088
ENCODING 195
SWIDTH 540 0
DWIDTH 9 0
BBX 8 9 0 -2
BITMAP
42
42
42
42
42
42
7F
01
01
ENDCHAR
STARTCHAR afii10069
ENCODING 196
SWIDTH 540 0
DWIDTH 9 0
BBX 8 9 0 -2
BITMAP
1E
22
22
22
22
22
7F
41
41
ENDCHAR
STARTCHAR afii10070
ENCODING 197
SWIDTH 540 0
DWIDTH 9 0
BBX 8 7 0 0
BITMAP
3E
41
41
7F
40
41
3E
ENDCHAR
STARTCHAR afii10086
ENCODING 198
SWIDTH 540 0
DWIDTH 9 0
BBX 8 13 0 -3
BITMAP
08
08
08
3E
49
49
49
49
49
3E
08
08
08
ENDCHAR
STARTCHAR afii10068
ENCODING 199
SWIDTH 540 0
DWIDTH 9 0
BBX 8 7 0 0
BITMAP
3F
20
20
20
20
20
20
ENDCHAR
STARTCHAR afii10087
ENCODING 200
SWIDTH 540 0
DWIDTH 9 0
BBX 8 7 0 0
BITMAP
41
22
14
08
14
22
41
ENDCHAR
STARTCHAR afii10074
ENCODING 201
SWIDTH 540 0
DWIDTH 9 0
BBX 8 7 0 0
BITMAP
41
43
45
49
51
61
41
ENDCHAR
STARTCHAR afii10075
ENCODING 202
SWIDTH 540 0
DWIDTH 9 0
BBX 8 10 0 0
BITMAP
22
1C
00
41
43
45
49
51
61
41
ENDCHAR
STARTCHAR afii10076
ENCODING 203
SWIDTH 540 0
DWIDTH 9 0
BBX 8 7 0 0
BITMAP
41
42
44
78
44
42
41
ENDCHAR
STARTCHAR afii10077
ENCODING 204
SWIDTH 540 0
DWIDTH 9 0
BBX 8 7 0 0
BITMAP
0F
11
11
11
11
11
21
ENDCHAR
STARTCHAR afii10078
ENCODING 205
SWIDTH 540 0
DWIDTH 9 0
BBX 8 7 0 0
BITMAP
41
63
55
49
41
41
41
ENDCHAR
STARTCHAR afii10079
ENCODING 206
SWIDTH 540 0
DWIDTH 9 0
BBX 8 7 0 0
BITMAP
41
41
41
7F
41
41
41
ENDCHAR
STARTCHAR afii10080
ENCODING 207
SWIDTH 540 0
DWIDTH 9 0
BBX 8 7 0 0
BITMAP
3E
41
41
41
41
41
3E
ENDCHAR
STARTCHAR afii10081
ENCODING 208
SWIDTH 540 0
DWIDTH 9 0
BBX 8 7 0 0
BITMAP
7F
41
41
41
41
41
41
ENDCHAR
STARTCHAR afii10097
ENCODING 209
SWIDTH 540 0
DWIDTH 9 0
BBX 8 7 0 0
BITMAP
3F
41
41
3F
11
21
41
ENDCHAR
STARTCHAR afii10082
ENCODING 210
SWIDTH 540 0
DWIDTH 9 0
BBX 8 10 0 -3
BITMAP
5C
62
41
41
41
62
5C
40
40
40
ENDCHAR
STARTCHAR afii10083
ENCODING 211
SWIDTH 540 0
DWIDTH 9 0
BBX 8 7 0 0
BITMAP
3E
41
40
40
40
41
3E
ENDCHAR
STARTCHAR afii10084
ENCODING 212
SWIDTH 540 0
DWIDTH 9 0
BBX 8 7 0 0
BITMAP
7F
08
08
08
08
08
08
ENDCHAR
STARTCHAR afii10085
ENCODING 213
SWIDTH 540 0
DWIDTH 9 0
BBX 8 10 0 -3
BITMAP
21
21
12
12
12
0C
0C
08
48
30
ENDCHAR
STARTCHAR afii10072
ENCODING 214
SWIDTH 540 0
DWIDTH 9 0
BBX 8 7 0 0
BITMAP
49
49
2A
1C
2A
49
49
ENDCHAR
STARTCHAR afii10067
ENCODING 215
SWIDTH 540 0
DWIDTH 9 0
BBX 8 7 0 0
BITMAP
7E
41
41
7E
41
41
7E
ENDCHAR
STARTCHAR afii10094
ENCODING 216
SWIDTH 540 0
DWIDTH 9 0
BBX 8 7 0 0
BITMAP
20
20
20
3E
21
21
3E
ENDCHAR
STARTCHAR afii10093
ENCODING 217
SWIDTH 540 0
DWIDTH 9 0
BBX 8 7 0 0
BITMAP
41
41
41
79
45
45
79
ENDCHAR
STARTCHAR afii10073
ENCODING 218
SWIDTH 540 0
DWIDTH 9 0
BBX 8 7 0 0
BITMAP
3E
41
01
0E
01
41
3E
ENDCHAR
STARTCHAR afii10090
ENCODING 219
SWIDTH 540 0
DWIDTH 9 0
BBX 8 7 0 0
BITMAP
49
49
49
49
49
49
7F
ENDCHAR
STARTCHAR afii10095
ENCODING 220
SWIDTH 540 0
DWIDTH 9 0
BBX 8 7 0 0
BITMAP
3E
41
01
0F
01
41
3E
ENDCHAR
STARTCHAR afii10091
ENCODING 221
SWIDTH 540 0
DWIDTH 9 0
BBX 9 9 0 -2
BITMAP
4900
4900
4900
4900
4900
4900
7F80
0080
0080
ENDCHAR
STARTCHAR afii10089
ENCODING 222
SWIDTH 540 0
DWIDTH 9 0
BBX 8 7 0 0
BITMAP
41
41
41
3F
01
01
01
ENDCHAR
STARTCHAR afii10092
ENCODING 223
SWIDTH 540 0
DWIDTH 9 0
BBX 8 7 0 0
BITMAP
70
10
10
1E
11
11
1E
ENDCHAR
STARTCHAR afii10048
ENCODING 224
SWIDTH 540 0
DWIDTH 9 0
BBX 8 10 0 0
BITMAP
4E
51
51
51
71
51
51
51
51
4E
ENDCHAR
STARTCHAR afii10017
ENCODING 225
SWIDTH 540 0
DWIDTH 9 0
BBX 8 10 0 0
BITMAP
08
14
14
14
22
3E
22
41
41
41
ENDCHAR
STARTCHAR afii10018
ENCODING 226
SWIDTH 540 0
DWIDTH 9 0
BBX 8 10 0 0
BITMAP
7E
40
40
40
7C
42
41
41
42
7C
ENDCHAR
STARTCHAR afii10040
ENCODING 227
SWIDTH 540 0
DWIDTH 9 0
BBX 8 12 0 -2
BITMAP
42
42
42
42
42
42
42
42
42
7F
01
01
ENDCHAR
STARTCHAR afii10021
ENCODING 228
SWIDTH 540 0
DWIDTH 9 0
BBX 8 12 0 -2
BITMAP
0E
12
22
22
22
22
22
22
22
7F
41
41
ENDCHAR
STARTCHAR afii10022
ENCODING 229
SWIDTH 540 0
DWIDTH 9 0
BBX 8 10 0 0
BITMAP
7F
40
40
40
7C
40
40
40
40
7F
ENDCHAR
STARTCHAR afii10038
ENCODING 230
SWIDTH 540 0
DWIDTH 9 0
BBX 8 10 0 0
BITMAP
08
3E
49
49
49
49
49
49
3E
08
ENDCHAR
STARTCHAR afii10020
ENCODING 231
SWIDTH 540 0
DWIDTH 9 0
BBX 8 10 0 0
BITMAP
3F
20
20
20
20
20
20
20
20
20
ENDCHAR
STARTCHAR afii10039
ENCODING 232
SWIDTH 540 0
DWIDTH 9 0
BBX 8 10 0 0
BITMAP
41
41
22
14
08
08
14
22
41
41
ENDCHAR
STARTCHAR afii10026
ENCODING 233
SWIDTH 540 0
DWIDTH 9 0
BBX 8 10 0 0
BITMAP
41
41
43
45
49
51
61
41
41
41
ENDCHAR
STARTCHAR afii10027
ENCODING 234
SWIDTH 540 0
DWIDTH 9 0
BBX 8 13 0 0
BITMAP
22
1C
00
41
41
43
45
49
51
61
41
41
41
ENDCHAR
STARTCHAR afii10028
ENCODING 235
SWIDTH 540 0
DWIDTH 9 0
BBX 8 10 0 0
BITMAP
41
42
44
48
50
68
44
42
41
41
ENDCHAR
STARTCHAR afii10029
ENCODING 236
SWIDTH 540 0
DWIDTH 9 0
BBX 8 10 0 0
BITMAP
0F
11
21
21
21
21
21
21
21
41
ENDCHAR
STARTCHAR afii10030
ENCODING 237
SWIDTH 540 0
DWIDTH 9 0
BBX 8 10 0 0
BITMAP
41
41
63
55
49
41
41
41
41
41
ENDCHAR
STARTCHAR afii10031
ENCODING 238
SWIDTH 540 0
DWIDTH 9 0
BBX 8 10 0 0
BITMAP
41
41
41
41
7F
41
41
41
41
41
ENDCHAR
STARTCHAR afii10032
ENCODING 239
SWIDTH 540 0
DWIDTH 9 0
BBX 8 10 0 0
BITMAP
3E
41
41
41
41
41
41
41
41
3E
ENDCHAR
STARTCHAR afii10033
ENCODING 240
SWIDTH 540 0
DWIDTH 9 0
BBX 8 10 0 0
BITMAP
7F
41
41
41
41
41
41
41
41
41
ENDCHAR
STARTCHAR afii10049
ENCODING 241
SWIDTH 540 0
DWIDTH 9 0
BBX 8 10 0 0
BITMAP
1F
21
41
41
21
1F
09
11
21
41
ENDCHAR
STARTCHAR afii10034
ENCODING 242
SWIDTH 540 0
DWIDTH 9 0
BBX 8 10 0 0
BITMAP
7C
42
41
41
42
7C
40
40
40
40
ENDCHAR
STARTCHAR afii10035
ENCODING 243
SWIDTH 540 0
DWIDTH 9 0
BBX 8 10 0 0
BITMAP
1E
21
40
40
40
40
40
40
21
1E
ENDCHAR
STARTCHAR afii10036
ENCODING 244
SWIDTH 540 0
DWIDTH 9 0
BBX 8 10 0 0
BITMAP
7F
08
08
08
08
08
08
08
08
08
ENDCHAR
STARTCHAR afii10037
ENCODING 245
SWIDTH 540 0
DWIDTH 9 0
BBX 8 10 0 0
BITMAP
21
21
12
12
12
0C
0C
08
48
30
ENDCHAR
STARTCHAR afii10024
ENCODING 246
SWIDTH 540 0
DWIDTH 9 0
BBX 8 10 0 0
BITMAP
49
49
2A
2A
1C
2A
2A
49
49
49
ENDCHAR
STARTCHAR afii10019
ENCODING 247
SWIDTH 540 0
DWIDTH 9 0
BBX 8 10 0 0
BITMAP
7C
42
41
42
7C
42
41
41
42
7C
ENDCHAR
STARTCHAR afii10046
ENCODING 248
SWIDTH 540 0
DWIDTH 9 0
BBX 8 10 0 0
BITMAP
40
40
40
40
7C
42
41
41
42
7C
ENDCHAR
STARTCHAR afii10045
ENCODING 249
SWIDTH 540 0
DWIDTH 9 0
BBX 8 10 0 0
BITMAP
41
41
41
41
71
49
45
45
49
71
ENDCHAR
STARTCHAR afii10025
ENCODING 250
SWIDTH 540 0
DWIDTH 9 0
BBX 8 10 0 0
BITMAP
3E
41
01
02
0C
02
01
01
41
3E
ENDCHAR
STARTCHAR afii10042
ENCODING 251
SWIDTH 540 0
DWIDTH 9 0
BBX 8 10 0 0
BITMAP
49
49
49
49
49
49
49
49
49
7F
ENDCHAR
STARTCHAR afii10047
ENCODING 252
SWIDTH 540 0
DWIDTH 9 0
BBX 8 10 0 0
BITMAP
3C
42
01
01
0F
01
01
01
42
3C
ENDCHAR
STARTCHAR afii10043
ENCODING 253
SWIDTH 540 0
DWIDTH 9 0
BBX 9 12 0 -2
BITMAP
4900
4900
4900
4900
4900
4900
4900
4900
4900
7F80
0080
0080
ENDCHAR
STARTCHAR afii10041
ENCODING 254
SWIDTH 540 0
DWIDTH 9 0
BBX 8 10 0 0
BITMAP
41
41
41
41
3F
01
01
01
01
01
ENDCHAR
STARTCHAR afii10044
ENCODING 255
SWIDTH 540 0
DWIDTH 9 0
BBX 8 10 0 0
BITMAP
70
10
10
10
1C
12
11
11
12
1C
ENDCHAR
ENDFONT
